<svg xmlns="http://www.w3.org/2000/svg" xmlns:xlink="http://www.w3.org/1999/xlink" viewBox="0 0 1319.16 1533.78"><defs><style>.cls-1{fill:none;}.cls-2{clip-path:url(#clip-path);}.cls-3{fill:#ee9324;}.cls-4{fill:#e94f1e;}.cls-5{fill:#e33837;}.cls-6{fill:#e13685;}.cls-7{fill:#4586c6;}.cls-8{fill:#55abcd;}</style><clipPath id="clip-path" transform="translate(0 526.71)"><rect class="cls-1" width="857.21" height="1025.71"/></clipPath></defs><g id="Layer_2" data-name="Layer 2"><g id="Layer_1-2" data-name="Layer 1"><g class="cls-2"><polygon class="cls-3" points="383.46 0 319.55 85.84 1255.25 1104.57 1319.16 1018.73 383.46 0"/><polygon class="cls-4" points="319.55 85.84 255.64 171.69 1191.34 1190.41 1255.25 1104.57 319.55 85.84"/><polygon class="cls-5" points="255.64 171.69 191.73 257.53 1127.43 1276.26 1191.34 1190.41 255.64 171.69"/><polygon class="cls-6" points="191.73 257.53 127.82 343.37 1063.52 1362.1 1127.43 1276.26 191.73 257.53"/><polygon class="cls-7" points="127.82 343.37 63.91 429.21 999.61 1447.94 1063.52 1362.1 127.82 343.37"/><polygon class="cls-8" points="63.91 429.21 0 515.05 935.7 1533.78 999.61 1447.94 63.91 429.21"/></g></g></g></svg>