<svg xmlns="http://www.w3.org/2000/svg" viewBox="0 0 682.16 531.63"><defs><style>.cls-1{fill:#f4f0ed;}.cls-2{fill:#ee9324;}</style></defs><g id="Layer_2" data-name="Layer 2"><g id="Layer_1-2" data-name="Layer 1"><rect class="cls-1" width="682.16" height="531.63"/><path class="cls-2" d="M441.45,122a142.9,142.9,0,0,0-100.38,40.85A142.87,142.87,0,0,0,240.7,122c-79.3,0-143.82,64.52-143.82,143.82S161.4,409.64,240.7,409.64a142.86,142.86,0,0,0,100.37-40.86,142.9,142.9,0,0,0,100.38,40.86c79.3,0,143.82-64.52,143.82-143.83S520.75,122,441.45,122Zm0,255.7a111.36,111.36,0,0,1-87.86-42.63h0A110.47,110.47,0,0,1,330,275.26q-.39-4.68-.39-9.45a88.87,88.87,0,1,0-88.88,88.86c1.63,0,3.25-.05,4.86-.13.53,0,1.06-.08,1.59-.13,1.08-.07,2.14-.15,3.22-.27l1.84-.23c1-.13,1.94-.26,2.9-.42l1.9-.34c.92-.18,1.85-.35,2.76-.55.63-.15,1.27-.29,1.89-.45.91-.21,1.82-.46,2.72-.71l1.82-.53c.93-.28,1.84-.57,2.75-.88.55-.18,1.12-.37,1.68-.57,1-.35,2-.72,2.93-1.12l1.39-.55c1.33-.56,2.64-1.15,3.94-1.77l.26-.11c1.39-.67,2.75-1.39,4.1-2.15.39-.21.77-.44,1.16-.67.94-.53,1.88-1.07,2.8-1.63l1.43-.92q1.22-.78,2.4-1.59c.5-.34,1-.72,1.49-1.06.72-.54,1.48-1.08,2.21-1.64.5-.38,1-.77,1.43-1.15.72-.58,1.44-1.16,2.1-1.74l1.43-1.23c.72-.61,1.36-1.24,2-1.87.44-.41.88-.82,1.31-1.25.72-.68,1.37-1.38,2-2.09.38-.39.77-.78,1.14-1.18.8-.89,1.59-1.79,2.36-2.71.19-.23.4-.43.58-.66.11.26.23.5.35.76.43,1,.89,2,1.35,3,.39.84.77,1.67,1.18,2.5s1,2,1.49,2.93.84,1.63,1.28,2.44c.53,1,1.08,1.94,1.63,2.9.46.79.9,1.59,1.37,2.38l1.76,2.86c.39.62.72,1.24,1.15,1.85a111.85,111.85,0,1,1,31.87-78.15A88.87,88.87,0,1,0,441.45,177c-1.63,0-3.25.05-4.86.14-.54,0-1.06.08-1.59.12-1.08.08-2.14.16-3.22.28-.61.06-1.23.15-1.84.23-1,.13-1.94.25-2.87.41l-1.9.35c-.93.17-1.85.35-2.76.55l-1.9.44q-1.36.33-2.7.72c-.62.16-1.23.33-1.84.52-.92.27-1.82.56-2.72.87-.57.19-1.15.37-1.71.58-1,.35-1.93.72-2.87,1.1-.48.19-1,.37-1.43.57-1.3.54-2.58,1.12-3.85,1.73l-.35.15c-1.38.67-2.74,1.38-4.09,2.15-.41.22-.8.47-1.2.72-.93.52-1.85,1-2.75,1.61-.5.3-1,.62-1.43.93-.81.51-1.6,1-2.38,1.57-.51.35-1,.72-1.51,1.07-.71.54-1.47,1.07-2.19,1.63-.5.38-1,.77-1.48,1.16-.71.57-1.43,1.15-2.1,1.74l-1.43,1.22c-.71.62-1.37,1.25-2,1.88l-1.29,1.23c-.72.72-1.4,1.44-2.08,2.15L376,205.91c-.85,1-1.69,1.91-2.5,2.86l-.46.53c-.11-.28-.25-.55-.37-.82-.41-.93-.84-1.85-1.27-2.78s-.82-1.79-1.26-2.68-.93-1.84-1.43-2.76-.89-1.75-1.36-2.61-1-1.82-1.54-2.73l-1.43-2.54c-.46-.85-1.12-1.81-1.69-2.71-.4-.64-.78-1.3-1.19-1.93A111.85,111.85,0,0,1,553.37,265.9C553.37,327.59,503.13,377.69,441.45,377.69ZM297.62,265.81A56.92,56.92,0,1,1,240.7,208.9,56.91,56.91,0,0,1,297.62,265.81Zm86.91,0a56.92,56.92,0,1,1,56.92,56.92,56.91,56.91,0,0,1-56.92-56.92Z"/></g></g></svg>