<svg id="Layer_1" data-name="Layer 1" xmlns="http://www.w3.org/2000/svg" viewBox="0 0 682.16 401.78"><defs><style>.cls-1{fill:#ee9324;}</style></defs><path class="cls-1" d="M535.71,104.67a199.63,199.63,0,0,0-140.2,57.06,199.59,199.59,0,0,0-140.19-57.06c-110.77,0-200.88,90.12-200.88,200.89s90.11,200.88,200.88,200.88a199.54,199.54,0,0,0,140.19-57.06,199.59,199.59,0,0,0,140.2,57.06c110.77,0,200.88-90.11,200.88-200.88S646.48,104.67,535.71,104.67Zm0,357.15A155.53,155.53,0,0,1,413,402.28h0a154.35,154.35,0,0,1-33-83.53q-.54-6.54-.54-13.19A124.12,124.12,0,1,0,255.32,429.67c2.28,0,4.54-.07,6.79-.19.74,0,1.47-.11,2.21-.17,1.51-.11,3-.22,4.5-.38.86-.1,1.71-.22,2.57-.33,1.35-.18,2.71-.36,4.05-.58.89-.15,1.77-.31,2.66-.48,1.29-.24,2.58-.49,3.86-.77.88-.2,1.77-.4,2.64-.62,1.27-.3,2.53-.64,3.79-1l2.55-.73c1.29-.39,2.56-.8,3.83-1.23.78-.26,1.57-.52,2.35-.8,1.38-.49,2.74-1,4.09-1.56.65-.26,1.3-.5,1.94-.77,1.86-.78,3.7-1.61,5.51-2.47l.36-.16q2.91-1.41,5.73-3c.55-.3,1.08-.62,1.62-.93,1.31-.75,2.62-1.5,3.91-2.29.67-.42,1.33-.86,2-1.28,1.13-.73,2.25-1.46,3.35-2.22.7-.48,1.39-1,2.08-1.48,1-.75,2.07-1.51,3.09-2.29.69-.53,1.37-1.07,2-1.61,1-.8,2-1.61,2.93-2.43.66-.56,1.32-1.13,2-1.71,1-.85,1.9-1.73,2.83-2.61.61-.58,1.23-1.15,1.83-1.75,1-.95,1.91-1.93,2.84-2.92.53-.55,1.07-1.09,1.59-1.65q1.68-1.86,3.3-3.78c.26-.32.55-.61.81-.93.15.36.32.7.48,1.06.61,1.39,1.25,2.77,1.89,4.15.55,1.17,1.08,2.34,1.65,3.5.67,1.37,1.38,2.73,2.08,4.09.59,1.14,1.17,2.28,1.78,3.41.74,1.36,1.51,2.7,2.28,4.05.64,1.1,1.26,2.22,1.92,3.32.8,1.33,1.63,2.65,2.46,4,.54.86,1,1.73,1.6,2.58a155.3,155.3,0,0,1-111.76,47.09c-86.16,0-156.27-70.1-156.27-156.26s70.11-156.27,156.27-156.27A156.37,156.37,0,0,1,411.59,305.56,124.12,124.12,0,1,0,535.71,181.44c-2.28,0-4.54.07-6.79.19-.75,0-1.48.12-2.21.17-1.51.11-3,.22-4.5.39-.86.09-1.72.21-2.58.32-1.35.18-2.7.36-4,.58-.89.15-1.78.32-2.66.48-1.29.24-2.58.5-3.85.78-.89.19-1.78.4-2.66.61-1.27.31-2.52.64-3.77,1-.86.23-1.72.47-2.57.73-1.28.38-2.54.79-3.8,1.22-.79.26-1.6.52-2.39.81-1.35.48-2.69,1-4,1.54-.67.26-1.34.51-2,.79-1.82.76-3.61,1.57-5.38,2.41l-.49.22c-1.93.93-3.83,1.92-5.71,3-.57.31-1.12.65-1.68,1-1.29.73-2.58,1.47-3.84,2.25-.69.42-1.36.87-2,1.3-1.12.72-2.23,1.44-3.32,2.2-.71.49-1.4,1-2.1,1.49-1,.75-2.06,1.5-3.07,2.28-.7.53-1.38,1.07-2.06,1.62-1,.79-2,1.6-2.93,2.42-.66.57-1.32,1.13-2,1.71-1,.86-1.92,1.74-2.85,2.63-.61.57-1.22,1.14-1.81,1.72-1,1-1.95,2-2.9,3-.51.53-1,1.05-1.52,1.59q-1.79,2-3.49,4c-.21.25-.43.48-.64.73-.16-.38-.35-.76-.52-1.14-.57-1.3-1.17-2.59-1.77-3.88s-1.15-2.51-1.76-3.75-1.3-2.57-2-3.85-1.25-2.44-1.91-3.65-1.42-2.54-2.14-3.81-1.35-2.37-2-3.55-1.56-2.53-2.36-3.79c-.56-.89-1.09-1.81-1.67-2.69a155.24,155.24,0,0,1,111.76-47.1c86.16,0,156.26,70.1,156.26,156.27S621.87,461.82,535.71,461.82ZM334.82,305.56a79.5,79.5,0,1,1-79.5-79.5A79.59,79.59,0,0,1,334.82,305.56Zm121.39,0a79.5,79.5,0,1,1,79.5,79.5A79.59,79.59,0,0,1,456.21,305.56Z" transform="translate(-54.44 -104.67)"/></svg>