<svg xmlns="http://www.w3.org/2000/svg" viewBox="0 0 488.82 111.99"><defs><style>.cls-1{fill:#224152;}.cls-2{fill:#ee9324;}</style></defs><g id="Layer_2" data-name="Layer 2"><g id="Layer_1-2" data-name="Layer 1"><path class="cls-1" d="M62.52,106.35,43.6,79H22.71v27.34H0V8.22H42.48c26.21,0,42.61,13.6,42.61,35.6,0,14.72-7.43,25.52-20.19,31l22,31.55ZM41.21,26.72H22.71V60.93h18.5c13.88,0,20.89-6.45,20.89-17.11S55.09,26.72,41.21,26.72Z"/><path class="cls-1" d="M179.82,88.12v18.23h-76V8.22H178V26.44H126.41V47.75H172V65.41H126.41V88.12Z"/><path class="cls-1" d="M286.74,8.22v98.13H268.1L219.17,46.77v59.58H196.75V8.22h18.78L264.31,67.8V8.22Z"/><path class="cls-2" d="M432.83,0a55.59,55.59,0,0,0-39.08,15.91A56,56,0,1,0,354.67,112a55.65,55.65,0,0,0,39.08-15.91A56,56,0,1,0,432.83,0Zm0,99.55A43.34,43.34,0,0,1,398.63,83h0a43,43,0,0,1-9.21-23.28c-.1-1.21-.15-2.44-.15-3.68a34.6,34.6,0,1,0-34.6,34.6c.64,0,1.27,0,1.9,0l.61-.05c.42,0,.84-.06,1.26-.11.24,0,.47-.06.71-.09l1.13-.16L361,90l1.08-.22.73-.17,1.06-.28.71-.2,1.07-.34.65-.22c.39-.14.77-.29,1.14-.44.18-.07.37-.14.54-.22.52-.21,1-.44,1.54-.68l.1,0c.54-.26,1.07-.53,1.6-.82l.45-.26,1.09-.64.55-.36c.32-.2.63-.4.94-.62l.58-.41.86-.64q.29-.21.57-.45l.82-.67.55-.48.78-.73.51-.48c.27-.27.54-.54.8-.82l.44-.46c.31-.34.62-.7.92-1l.22-.26c.05.1.1.19.14.29.17.39.35.78.53,1.16l.45,1L383,81.6c.17.31.33.63.5,1s.42.75.64,1.12.35.62.53.93.46.74.69,1.11.29.48.44.71A43.5,43.5,0,1,1,398.23,56a34.6,34.6,0,1,0,34.6-34.59c-.64,0-1.27,0-1.9.05l-.61.05c-.42,0-.84.06-1.26.11-.24,0-.48.06-.72.09l-1.12.16-.74.13-1.08.22-.74.17-1.05.27-.72.21c-.35.1-.7.22-1.05.34l-.67.22-1.12.43-.56.22c-.51.22-1,.44-1.5.68l-.13.06c-.54.26-1.07.53-1.6.82l-.47.27c-.36.2-.71.41-1.07.63-.19.11-.37.24-.56.36l-.93.61-.58.42-.86.63-.57.45-.82.68c-.18.16-.37.31-.55.48s-.53.48-.79.73l-.5.48c-.28.27-.55.55-.81.83l-.43.44c-.33.37-.65.74-1,1.12l-.18.2c0-.11-.09-.21-.14-.32l-.49-1.08-.5-1.05c-.17-.36-.36-.71-.54-1.07l-.53-1-.6-1.06-.57-1c-.21-.35-.44-.7-.66-1.05s-.3-.51-.47-.76a43.55,43.55,0,1,1,31.16,74ZM376.83,56a22.16,22.16,0,1,1-22.16-22.15A22.18,22.18,0,0,1,376.83,56Zm33.84,0a22.16,22.16,0,1,1,22.16,22.16A22.18,22.18,0,0,1,410.67,56Z"/></g></g></svg>